<?xml version="1.0" standalone="no"?>
<!DOCTYPE svg PUBLIC "-//W3C//DTD SVG 20010904//EN"
 "http://www.w3.org/TR/2001/REC-SVG-20010904/DTD/svg10.dtd">
<svg version="1.0" xmlns="http://www.w3.org/2000/svg"
 width="618.000000pt" height="618.000000pt" viewBox="0 0 618.000000 618.000000"
 preserveAspectRatio="xMidYMid meet">
<metadata>
Created by potrace 1.14, written by Peter Selinger 2001-2017
</metadata>
<g transform="translate(0.000000,618.000000) scale(0.100000,-0.100000)"
fill="#000000" stroke="none">
<path d="M2795 5443 c-159 -6 -368 -34 -510 -70 -100 -24 -464 -133 -605 -180
-101 -34 -334 -148 -445 -218 -153 -96 -425 -314 -543 -435 -43 -43 -126 -152
-194 -250 -127 -186 -170 -292 -188 -467 -8 -86 -5 -503 4 -553 3 -14 7 -42
10 -63 26 -172 98 -305 247 -457 168 -172 315 -281 444 -329 52 -20 85 -23
255 -28 107 -2 200 -6 206 -8 6 -2 16 -43 23 -92 38 -284 127 -492 264 -619
121 -112 184 -126 572 -127 276 -1 296 1 420 26 72 15 131 23 133 18 3 -10 91
-134 114 -161 22 -27 68 -55 193 -120 66 -35 134 -73 151 -86 17 -12 66 -76
109 -141 88 -133 220 -310 338 -455 79 -97 80 -98 124 -98 87 0 130 48 121
135 -6 48 -7 50 -173 260 -47 61 -129 173 -180 250 -147 218 -179 248 -382
354 -99 51 -131 73 -146 99 -17 28 -18 35 -6 43 21 14 251 103 369 143 225 76
219 75 538 71 248 -3 349 -9 522 -30 19 -3 112 -8 205 -11 94 -4 176 -11 183
-17 19 -15 15 -103 -7 -146 -23 -44 -85 -102 -138 -129 -116 -59 -402 -124
-643 -147 -206 -19 -246 -47 -255 -175 -4 -55 0 -67 49 -167 95 -193 246 -429
284 -445 57 -23 128 2 156 55 26 47 16 87 -45 188 -114 187 -137 226 -150 262
-7 20 -11 39 -8 41 3 3 25 8 49 11 25 3 70 9 100 15 54 9 76 12 175 25 113 15
294 70 390 118 100 50 166 106 225 193 51 73 63 118 64 242 l1 113 81 32 c248
100 434 294 548 570 20 48 41 111 47 140 13 67 13 589 0 689 -33 251 -160 609
-323 908 -34 62 -186 294 -214 326 -11 12 -39 46 -64 75 -97 115 -271 275
-382 350 -123 84 -493 262 -659 317 -248 82 -344 105 -589 143 -66 10 -680 19
-865 12z m890 -247 c124 -22 150 -30 153 -47 4 -23 -80 -72 -283 -167 -207
-96 -257 -126 -324 -195 -59 -60 -61 -65 -67 -144 -4 -59 -1 -75 20 -118 14
-27 22 -53 18 -57 -4 -4 -61 -35 -127 -69 -154 -80 -176 -95 -258 -176 -108
-107 -120 -133 -123 -272 -3 -108 0 -127 37 -271 64 -249 58 -340 -25 -404
-43 -33 -90 -43 -221 -49 -186 -9 -324 -46 -498 -133 -211 -106 -382 -264
-480 -444 l-17 -32 -183 3 -183 4 -75 37 c-41 20 -85 48 -98 61 l-23 25 37 39
c68 71 76 99 76 245 -1 211 -13 260 -115 473 l-71 150 0 105 c0 92 4 112 27
162 61 132 230 190 398 137 74 -23 103 -19 142 18 45 42 49 106 10 150 -46 52
-127 70 -305 67 -132 -2 -141 -3 -202 -33 -112 -55 -239 -190 -265 -281 -26
-90 -33 -297 -13 -385 8 -33 39 -112 69 -175 73 -152 104 -247 111 -347 8
-106 -7 -133 -69 -133 -35 0 -47 6 -79 40 -70 73 -120 200 -143 365 -3 22 -8
119 -10 215 -6 211 10 303 74 435 66 137 198 324 305 430 77 77 310 257 431
332 106 67 202 115 214 108 6 -4 10 -26 10 -50 0 -62 14 -90 60 -124 42 -30
68 -36 210 -46 179 -13 228 -29 306 -97 69 -61 96 -171 69 -282 -37 -160 -147
-238 -471 -336 -180 -54 -244 -86 -326 -162 -120 -112 -148 -163 -162 -295
-10 -90 25 -143 94 -143 80 0 107 28 130 135 26 120 109 182 335 250 242 73
290 94 390 167 93 68 153 136 193 217 l37 75 4 164 3 163 -31 62 c-75 151
-252 279 -401 291 -36 2 -83 5 -105 6 -66 1 -72 11 -37 61 70 102 70 102 290
168 289 87 381 106 547 117 50 4 92 8 94 10 2 1 184 1 405 0 319 -3 419 -7
491 -20z m563 -162 c160 -62 438 -203 551 -278 105 -71 281 -229 281 -253 0
-11 -7 -13 -27 -9 -43 8 -117 15 -239 21 -110 6 -113 6 -170 -23 -76 -38 -149
-103 -176 -156 -24 -47 -32 -142 -18 -221 6 -29 43 -115 89 -205 168 -330 164
-385 -43 -525 -64 -43 -125 -88 -137 -101 -32 -34 -36 -95 -10 -138 37 -59
102 -60 195 -3 145 88 235 166 299 257 32 45 32 45 32 175 0 157 -5 173 -120
415 -106 220 -106 222 -65 260 17 16 48 32 67 36 50 9 189 -2 311 -26 56 -11
126 -22 155 -26 68 -7 95 -37 169 -186 120 -242 178 -400 245 -663 35 -138 36
-144 40 -387 5 -234 4 -252 -17 -320 -46 -151 -139 -319 -228 -407 -72 -71
-266 -163 -392 -186 -67 -11 -240 -18 -240 -9 0 5 27 38 60 73 85 90 102 131
101 239 -2 153 -21 206 -106 296 -76 79 -131 102 -291 121 -131 15 -150 18
-239 35 -27 5 -75 12 -105 15 -102 11 -156 -43 -134 -133 17 -68 86 -93 364
-127 208 -26 239 -38 271 -108 24 -55 24 -114 -1 -155 -33 -53 -94 -72 -315
-97 -84 -10 -122 -30 -137 -71 -7 -20 -19 -34 -28 -34 -20 0 -124 42 -200 80
-91 46 -188 71 -311 78 -175 12 -515 7 -584 -7 -84 -18 -365 -99 -394 -114
-57 -29 -65 -126 -14 -173 23 -21 32 -23 102 -19 50 2 120 17 206 43 173 53
227 62 364 62 111 -1 115 -1 87 -16 -35 -20 -192 -79 -396 -151 -133 -46 -222
-71 -445 -123 -80 -19 -123 -22 -308 -25 -349 -4 -425 29 -521 227 -50 103
-79 205 -101 348 -23 147 -20 196 15 257 59 103 194 215 355 296 69 34 206 87
226 87 24 0 -3 -36 -116 -156 -127 -134 -191 -213 -207 -254 -19 -51 -30 -138
-31 -250 -1 -179 24 -255 115 -351 62 -66 86 -78 165 -85 95 -9 136 0 173 37
25 25 30 38 30 78 0 39 -5 52 -30 76 -26 25 -39 29 -98 32 -57 3 -70 7 -89 28
-32 37 -46 97 -46 202 0 79 3 98 27 147 28 57 168 216 191 216 8 0 14 -22 19
-62 7 -72 47 -160 127 -284 58 -88 61 -91 108 -100 46 -9 97 17 118 61 22 46
12 78 -69 220 l-63 110 0 100 c1 77 5 108 19 135 84 160 319 298 586 345 105
18 208 19 325 1 50 -8 169 -15 265 -15 169 -2 177 -1 210 21 68 46 79 115 29
173 -29 32 -35 35 -73 30 -109 -14 -255 -12 -356 5 -166 28 -401 18 -617 -26
l-31 -6 -7 68 c-16 161 -16 161 -57 307 -62 223 -31 272 271 428 221 114 265
158 258 256 -3 41 -12 65 -42 108 -30 45 -35 58 -25 70 12 14 135 77 341 173
183 85 301 172 315 230 4 15 9 31 11 35 7 13 58 -1 181 -49z"/>
<path d="M2762 5143 c-18 -9 -42 -28 -53 -44 -42 -60 -51 -97 -50 -227 0 -153
9 -172 104 -223 80 -42 158 -34 190 20 33 57 17 115 -44 157 -44 30 -48 53
-23 119 34 89 37 111 19 148 -25 54 -89 77 -143 50z"/>
<path d="M2043 3551 c-17 -5 -51 -18 -75 -31 -69 -36 -137 -60 -236 -85 -120
-30 -139 -43 -147 -100 -9 -58 16 -105 64 -119 102 -29 400 62 505 155 38 34
41 41 41 88 0 38 -5 56 -21 71 -24 24 -82 33 -131 21z"/>
<path d="M4090 4728 c-32 -5 -94 -27 -149 -54 -133 -65 -224 -156 -269 -269
-72 -177 -77 -185 -165 -253 -111 -84 -122 -94 -136 -119 -28 -54 1 -135 55
-153 50 -17 84 -5 171 57 156 112 205 173 266 334 43 111 70 142 164 192 78
40 121 53 212 61 35 3 70 11 78 18 22 18 43 64 43 95 0 36 -34 93 -57 95 -54
5 -165 3 -213 -4z"/>
<path d="M5183 3620 c-26 -11 -53 -59 -53 -94 0 -14 20 -63 44 -109 55 -104
76 -173 76 -252 l0 -60 -69 -68 c-74 -72 -97 -117 -87 -169 12 -59 79 -99 137
-82 37 11 192 164 216 213 28 57 24 293 -6 381 -31 90 -84 182 -126 219 -37
32 -85 40 -132 21z"/>
<path d="M3045 3089 c-54 -22 -70 -46 -70 -104 0 -49 3 -58 30 -79 17 -14 55
-34 85 -45 65 -24 134 -79 148 -118 11 -33 9 -71 -8 -169 -16 -95 0 -138 58
-154 50 -13 87 -1 124 42 37 43 49 101 49 235 0 133 -13 170 -83 242 -99 101
-267 177 -333 150z"/>
</g>
</svg>
